<svg xmlns="http://www.w3.org/2000/svg" width="520" height="300" viewBox="0 0 520 300" fill="none"><rect width="520" height="300" rx="26" fill="#0B0F17"/><rect x="24" y="22" width="472" height="256" rx="22" fill="#0F1520" stroke="#FFFFFF" stroke-opacity=".08"/><rect x="44" y="42" width="102" height="12" rx="6" fill="#EEF3FF" fill-opacity=".88"/><rect x="44" y="74" width="94" height="190" rx="18" fill="#141B27" stroke="#FFFFFF" stroke-opacity=".06"/><rect x="154" y="74" width="94" height="190" rx="18" fill="#141B27" stroke="#FFFFFF" stroke-opacity=".06"/><rect x="264" y="74" width="94" height="190" rx="18" fill="#141B27" stroke="#FFFFFF" stroke-opacity=".06"/><rect x="374" y="74" width="94" height="190" rx="18" fill="#141B27" stroke="#FFFFFF" stroke-opacity=".06"/><rect x="56" y="102" width="70" height="48" rx="14" fill="#172233"/><rect x="56" y="162" width="70" height="48" rx="14" fill="#172233"/><rect x="166" y="122" width="70" height="48" rx="14" fill="#1D2A3A"/><rect x="276" y="148" width="70" height="48" rx="14" fill="#233041"/><rect x="386" y="170" width="70" height="48" rx="14" fill="#FFC478" fill-opacity=".18" stroke="#FFC478" stroke-opacity=".28"/></svg>
