<svg xmlns="http://www.w3.org/2000/svg" width="520" height="300" viewBox="0 0 520 300" fill="none"><rect width="520" height="300" rx="26" fill="#0B0F17"/><rect x="24" y="22" width="472" height="256" rx="22" fill="#0F1520" stroke="#FFFFFF" stroke-opacity=".08"/><rect x="44" y="42" width="112" height="12" rx="6" fill="#EEF3FF" fill-opacity=".88"/><rect x="44" y="72" width="202" height="162" rx="18" fill="#121925" stroke="#FFFFFF" stroke-opacity=".06"/><rect x="60" y="90" width="170" height="12" rx="6" fill="#AFB7CA" fill-opacity=".26"/><rect x="60" y="118" width="44" height="30" rx="10" fill="#192231"/><rect x="112" y="118" width="44" height="30" rx="10" fill="#192231"/><rect x="164" y="118" width="44" height="30" rx="10" fill="#192231"/><rect x="60" y="156" width="44" height="30" rx="10" fill="#192231"/><rect x="112" y="156" width="44" height="30" rx="10" fill="#FF82C4" fill-opacity=".18" stroke="#FF82C4" stroke-opacity=".32"/><rect x="164" y="156" width="44" height="30" rx="10" fill="#192231"/><rect x="266" y="72" width="190" height="74" rx="18" fill="#151E2B" stroke="#FFFFFF" stroke-opacity=".06"/><rect x="284" y="92" width="108" height="10" rx="5" fill="#EEF3FF" fill-opacity=".84"/><rect x="284" y="114" width="76" height="8" rx="4" fill="#AFB7CA" fill-opacity=".38"/><rect x="266" y="160" width="190" height="74" rx="18" fill="#151E2B" stroke="#FFFFFF" stroke-opacity=".06"/><rect x="284" y="180" width="124" height="12" rx="6" fill="#FF82C4" fill-opacity=".8"/><rect x="284" y="204" width="98" height="8" rx="4" fill="#AFB7CA" fill-opacity=".38"/></svg>
