<svg xmlns="http://www.w3.org/2000/svg" width="560" height="348" viewBox="0 0 560 348" fill="none"><defs><linearGradient id="a" x1="40" y1="28" x2="520" y2="320" gradientUnits="userSpaceOnUse"><stop stop-color="#1A2130"/><stop offset="1" stop-color="#0B0F17"/></linearGradient><linearGradient id="b" x1="80" y1="56" x2="480" y2="248" gradientUnits="userSpaceOnUse"><stop stop-color="#8CF4D6" stop-opacity=".24"/><stop offset=".55" stop-color="#78A8FF" stop-opacity=".18"/><stop offset="1" stop-color="#8CF4D6" stop-opacity=".04"/></linearGradient><filter id="c" x="0" y="0" width="560" height="348" filterUnits="userSpaceOnUse" color-interpolation-filters="sRGB"><feGaussianBlur stdDeviation="18"/></filter></defs><g filter="url(#c)" opacity=".42"><ellipse cx="294" cy="284" rx="188" ry="34" fill="#8CF4D6"/></g><rect x="48" y="34" width="404" height="248" rx="24" fill="url(#a)"/><rect x="72" y="58" width="356" height="200" rx="18" fill="#0D121B"/><rect x="88" y="74" width="124" height="12" rx="6" fill="#EEF3FF" fill-opacity=".9"/><rect x="88" y="98" width="208" height="8" rx="4" fill="#AFB7CA" fill-opacity=".46"/><rect x="88" y="124" width="154" height="84" rx="16" fill="url(#b)"/><rect x="256" y="124" width="156" height="38" rx="14" fill="#141A25"/><rect x="256" y="176" width="156" height="14" rx="7" fill="#1B2432"/><rect x="256" y="198" width="110" height="10" rx="5" fill="#AFB7CA" fill-opacity=".4"/><rect x="88" y="224" width="90" height="18" rx="9" fill="#8CF4D6"/><path d="M22 292H478" stroke="#FFFFFF" stroke-opacity=".12" stroke-width="12" stroke-linecap="round"/><path d="M218 292L196 314H304L282 292" fill="#111722"/><rect x="360" y="138" width="152" height="174" rx="28" fill="#0C111A"/><rect x="375" y="156" width="122" height="18" rx="9" fill="#EEF3FF" fill-opacity=".9"/><rect x="375" y="186" width="84" height="8" rx="4" fill="#AFB7CA" fill-opacity=".44"/><rect x="375" y="208" width="122" height="66" rx="18" fill="#131B27"/><circle cx="405" cy="242" r="12" fill="#8CF4D6" fill-opacity=".86"/><rect x="425" y="232" width="54" height="10" rx="5" fill="#EEF3FF" fill-opacity=".86"/><rect x="425" y="250" width="42" height="8" rx="4" fill="#AFB7CA" fill-opacity=".42"/></svg>
