<svg xmlns="http://www.w3.org/2000/svg" width="640" height="220" viewBox="0 0 640 220" fill="none"><defs><linearGradient id="a" x1="54" y1="110" x2="586" y2="110" gradientUnits="userSpaceOnUse"><stop stop-color="#78A8FF" stop-opacity="0"/><stop offset=".2" stop-color="#78A8FF" stop-opacity=".34"/><stop offset=".52" stop-color="#8CF4D6" stop-opacity=".32"/><stop offset="1" stop-color="#8CF4D6" stop-opacity="0"/></linearGradient></defs><path d="M54 142C116 142 124 68 186 68C248 68 254 150 318 150C378 150 392 86 450 86C506 86 520 128 586 128" stroke="url(#a)" stroke-width="2"/><path d="M54 110H586" stroke="url(#a)" stroke-width="1" stroke-dasharray="6 10"/><circle cx="54" cy="142" r="9" fill="#78A8FF" fill-opacity=".24" stroke="#78A8FF" stroke-opacity=".42"/><circle cx="186" cy="68" r="10" fill="#121924" stroke="#8CF4D6" stroke-opacity=".46"/><circle cx="318" cy="150" r="11" fill="#121924" stroke="#78A8FF" stroke-opacity=".42"/><circle cx="450" cy="86" r="10" fill="#121924" stroke="#8CF4D6" stroke-opacity=".46"/><circle cx="586" cy="128" r="12" fill="#8CF4D6" fill-opacity=".22" stroke="#8CF4D6" stroke-opacity=".46"/><rect x="152" y="34" width="70" height="22" rx="11" fill="#101722" stroke="#FFFFFF" stroke-opacity=".08"/><rect x="284" y="176" width="68" height="22" rx="11" fill="#101722" stroke="#FFFFFF" stroke-opacity=".08"/><rect x="416" y="48" width="78" height="22" rx="11" fill="#101722" stroke="#FFFFFF" stroke-opacity=".08"/></svg>
